<svg xmlns="http://www.w3.org/2000/svg" width="100" height="100" viewBox="0 0 100 100">
  <!-- Camel icon -->
  <g transform="translate(50, 50) scale(0.7)">
    <circle cx="0" cy="0" r="62.5" fill="#fce4e4" stroke="#EE0000" stroke-width="6"/>
    <!-- Camel silhouette -->
    <g transform="translate(-85.421, 56.236) translate(-503.1, -900.29)">
      <path d="m590.31 806.31c-0.47239-0.0321-0.93151 0.0284-1.375 0.25-5.5992 2.8011 0 14 0 14-16.807 14.009-13.236 37.938-32.844 37.938-10.689 0-21.322-12.293-32.531-19.812-0.1443 1.7733-0.25 3.5645-0.25 5.375 0 24.515 13.51 45.863 33.469 57.063 5.5828-0.70321 11.158-2.1139 15.344-4.9062 21.992-14.662 27.452-42.557 36.438-56.031 5.5962-8.4063 31.824-7.6769 33.594-11.219 2.8041-5.6022-5.6021-14-8.4062-14h-22.406c-1.5655 0-4.0253-2.7812-5.5938-2.7812h-8.4062s-3.7245-5.6503-7.0312-5.875z"
            fill="#EE0000"/>
    </g>
  </g>
</svg>
